<?xml version="1.0" encoding="UTF-8" standalone="no"?>
<svg
   viewBox="0 0 87.950409 318.75958"
   version="1.1"
   id="svg4286"
   sodipodi:docname="beer.svg"
   inkscape:version="1.2.2 (732a01da63, 2022-12-09)"
   xmlns:inkscape="http://www.inkscape.org/namespaces/inkscape"
   xmlns:sodipodi="http://sodipodi.sourceforge.net/DTD/sodipodi-0.dtd"
   xmlns="http://www.w3.org/2000/svg"
   xmlns:svg="http://www.w3.org/2000/svg">
  <sodipodi:namedview
     id="namedview4288"
     pagecolor="#ffffff"
     bordercolor="#000000"
     borderopacity="0.25"
     inkscape:showpageshadow="2"
     inkscape:pageopacity="0.0"
     inkscape:pagecheckerboard="0"
     inkscape:deskcolor="#d1d1d1"
     showgrid="false"
     inkscape:zoom="2.5222771"
     inkscape:cx="34.492641"
     inkscape:cy="159.57802"
     inkscape:window-width="1920"
     inkscape:window-height="991"
     inkscape:window-x="-9"
     inkscape:window-y="-9"
     inkscape:window-maximized="1"
     inkscape:current-layer="g4284" />
  <defs
     id="defs4274">
    <linearGradient
       id="b"
       x1="436.34"
       x2="547.93"
       y1="485.12"
       y2="489.85"
       gradientUnits="userSpaceOnUse">
      <stop
         stop-color="#008000"
         offset="0"
         id="stop4264" />
      <stop
         offset="1"
         id="stop4266" />
    </linearGradient>
    <linearGradient
       id="a"
       x1="170.93"
       x2="154.28"
       y1="121.75"
       y2="82.281"
       gradientUnits="userSpaceOnUse">
      <stop
         offset="0"
         id="stop4269" />
      <stop
         stop-color="#c8c600"
         stop-opacity=".83529"
         offset="1"
         id="stop4271" />
    </linearGradient>
  </defs>
  <g
     transform="translate(-436.34 -267.22)"
     stroke="#000"
     id="g4284">
    <path
       d="m463.97 282.74 4.2759-1.6245 5.6641 2.763 5.2716-2.4118 5.2734 2.8687 5.7629-2.7876 5.9052 1.3944 4.1206-2.7342s-1.4972-8.6593-4.3239-9.7213c-3.2823-1.2332-16.527-1.3151-16.527-1.3151s-14.448-0.70483-16.308 1.5308c-1.8435 2.2164-3.1894 10.122-3.1894 10.122l4.0745 1.9158zm-1.715-0.10257s-2.0185 8.5755-1.4081 11.363c0.37229 1.7003 0.9265 3.2664 0.89538 4.4347-0.69091 25.937-4.9886 75.915-5.5002 77.962s-1.0233 9.7213-3.0699 13.303-8.8259 11.512-11.256 16.373c-2.072 4.144-3.0699 8.698-3.5815 13.303s0.51164 145.82 0.51164 145.82l2.0466 10.745c3.0699 4.0932 10.745 7.163 13.814 7.163s31.722 1.0233 38.885 1.0233 17.396-0.51165 22.001-4.0932 7.6747-7.6747 6.6514-12.28-1.0233-132-1.0233-135.59 0.96044-13.478-1.0233-17.908c-4.0473-9.0384-17.908-29.164-17.908-33.257s-5.1165-79.305-5.1165-82.375 1.5349-5.6281 1.5349-8.1863-1.0233-8.698-1.0233-8.698"
       fill="url(#b)"
       stroke-width="3.7"
       id="path4276" />
    <path
       d="m463.37 282.74 4.2759-1.6245 5.6641 2.763 5.2716-2.4118 5.2734 2.8687 5.7629-2.7876 5.9052 1.3944 4.1206-2.7342s-1.4972-8.6593-4.3239-9.7213c-3.2823-1.2332-16.527-1.3151-16.527-1.3151s-14.448-0.70483-16.308 1.5308c-1.8435 2.2164-3.1894 10.122-3.1894 10.122l4.0745 1.9158z"
       fill="#ccc"
       stroke-width="3.7"
       id="path4278" />
    <path
       transform="matrix(.51648 -1.2246 1.2246 .51648 257.34 628.09)"
       d="m195.56 66.431c11.284 19.255 2.2209 42.706-20.244 52.378s-49.823 1.9036-61.107-17.352c-0.18444-0.31473-0.3639-0.63159-0.53834-0.95048l41.214-16.563z"
       fill="url(#a)"
       stroke-width="2.0182"
       id="path4280" />
    <path
       transform="matrix(.32488 -.77031 .77031 .32488 324.28 575.09)"
       d="m195.56 66.431a45.519 39.016 0 1 1 -81.889 34.076l41.214-16.563z"
       fill="#808000"
       stroke-width="2.0182"
       id="path4282"
       style="fill:#0000ff" />
  </g>
</svg>
