<?xml version="1.0" encoding="UTF-8" standalone="no"?>
<svg
   viewBox="0 0 744.09448819 1052.3622047"
   version="1.1"
   id="svg1109"
   sodipodi:docname="button.svg"
   inkscape:version="1.2.2 (732a01da63, 2022-12-09)"
   xmlns:inkscape="http://www.inkscape.org/namespaces/inkscape"
   xmlns:sodipodi="http://sodipodi.sourceforge.net/DTD/sodipodi-0.dtd"
   xmlns="http://www.w3.org/2000/svg"
   xmlns:svg="http://www.w3.org/2000/svg">
  <sodipodi:namedview
     id="namedview1111"
     pagecolor="#ffffff"
     bordercolor="#000000"
     borderopacity="0.25"
     inkscape:showpageshadow="2"
     inkscape:pageopacity="0.0"
     inkscape:pagecheckerboard="0"
     inkscape:deskcolor="#d1d1d1"
     showgrid="false"
     inkscape:zoom="0.73643846"
     inkscape:cx="372.06096"
     inkscape:cy="526.1811"
     inkscape:window-width="1920"
     inkscape:window-height="991"
     inkscape:window-x="-9"
     inkscape:window-y="-9"
     inkscape:window-maximized="1"
     inkscape:current-layer="svg1109" />
  <defs
     id="defs1099">
    <filter
       id="d"
       x="-0.042944445"
       y="-0.042944228"
       width="1.0858889"
       height="1.0858885">
      <feGaussianBlur
         stdDeviation="5.4"
         id="feGaussianBlur1081" />
    </filter>
    <linearGradient
       id="c"
       x1="458.57"
       x2="258.57"
       y1="649.5"
       y2="439.5"
       gradientUnits="userSpaceOnUse"
       gradientTransform="translate(-1.3578867,-54.315469)">
      <stop
         stop-color="#00b400"
         offset="0"
         id="stop1084" />
      <stop
         stop-color="#4bff4b"
         offset="1"
         id="stop1086" />
    </linearGradient>
    <linearGradient
       id="b"
       x1="244.45"
       x2="512.71"
       y1="439.5"
       y2="716.65"
       gradientUnits="userSpaceOnUse"
       gradientTransform="translate(-1.3578867,-54.315469)">
      <stop
         stop-color="#fff"
         offset="0"
         id="stop1089" />
      <stop
         stop-color="#e4e4e4"
         offset="1"
         id="stop1091" />
    </linearGradient>
    <linearGradient
       id="a"
       x1="220"
       x2="537.97"
       gradientUnits="userSpaceOnUse"
       gradientTransform="translate(-1.3578867,-54.315469)">
      <stop
         stop-color="#fff"
         stop-opacity=".1504"
         offset="0"
         id="stop1094" />
      <stop
         stop-color="#fff"
         stop-opacity=".292"
         offset="1"
         id="stop1096" />
    </linearGradient>
  </defs>
  <path
     transform="matrix(1.0512,0,0,1.0512,-19.091887,-81.744469)"
     d="m 565.71,575.22 a 180,180 0 1 1 -360,0 180,180 0 1 1 360,0 z"
     filter="url(#d)"
     stroke="#ffffff"
     stroke-linejoin="round"
     stroke-width="5"
     id="path1101" />
  <path
     d="m 555.78211,520.90453 c 0,94.677 -76.751,171.43 -171.43,171.43 -94.679,0 -171.43,-76.751 -171.43,-171.43 0,-94.679 76.751,-171.43 171.43,-171.43 94.679,0 171.43,76.751 171.43,171.43 z"
     fill="url(#c)"
     id="path1103"
     style="fill:url(#c)" />
  <path
     d="m 384.36211,331.06453 c -104.73,0 -189.84,85.109 -189.84,189.84 0,104.731 85.109,189.84 189.84,189.84 104.731,0 189.84,-85.109 189.84,-189.84 0,-104.731 -85.109,-189.84 -189.84,-189.84 z m 0,19.688 c 94.088,0 170.16,76.068 170.16,170.16 0,94.092 -76.068,170.16 -170.16,170.16 -94.092,0 -170.16,-76.068 -170.16,-170.16 0,-94.092 76.068,-170.16 170.16,-170.16 z m -30.562,44.531 v 106.75 h -48.094 l 78.656,75.094 78.656,-75.094 h -48.094 v -106.75 h -61.125 z m -60.75,185.38 v 55.656 h 182.59 v -55.656 h -29.438 v 29.344 h -123.66 v -29.344 h -29.5 z"
     fill="url(#b)"
     id="path1105"
     style="fill:url(#b)" />
  <path
     d="m 384.36211,355.18453 c -91.521,0 -165.72,74.197 -165.72,165.72 0,62.637 34.757,117.14 86.031,145.31 6.1568,-117.57 103.42,-211.03 222.53,-211.03 3.1525,0 6.2856,0.0579 9.4062,0.1875 -25.399,-58.928 -84.006,-100.19 -152.25,-100.19 z"
     fill="url(#a)"
     id="path1107"
     style="fill:url(#a)" />
</svg>
