<svg enable-background="new 0 0 64 64" viewBox="0 0 64 64" xmlns="http://www.w3.org/2000/svg"><path d="m20 50c0 1.1-.9 2-2 2h-2c-1.1 0-2-.9-2-2v-11c0-1.1.9-2 2-2h2c1.1 0 2 .9 2 2z" fill="#231f20" opacity=".2"/><path d="m50 50c0 1.1-.9 2-2 2h-2c-1.1 0-2-.9-2-2v-11c0-1.1.9-2 2-2h2c1.1 0 2 .9 2 2z" fill="#231f20" opacity=".2"/><path d="m20 48c0 1.1-.9 2-2 2h-2c-1.1 0-2-.9-2-2v-11c0-1.1.9-2 2-2h2c1.1 0 2 .9 2 2z" fill="#4f5d73"/><path d="m50 48c0 1.1-.9 2-2 2h-2c-1.1 0-2-.9-2-2v-11c0-1.1.9-2 2-2h2c1.1 0 2 .9 2 2z" fill="#4f5d73"/><path d="m44 37h-24c-3.3 0-6-2.7-6-6v-.4l2-10.1c1-3.5 3.2-5.5 6-5.5h20c2.8 0 5 2 5.9 5.5v.1l2.1 10.4c0 3.3-2.7 6-6 6zm-26-5.8c.1 1 .9 1.8 2 1.8h24c1 0 1.9-.8 2-1.8l-1.9-9.7c-.3-.8-.9-2.5-2.1-2.5h-20c-1.2 0-1.8 1.7-2.1 2.5z" fill="#231f20" opacity=".2"/><path d="m48 29c0 2.2-1.8 4-4 4h-24c-2.2 0-4-1.8-4-4l2-10c.5-2 1.8-4 4-4h20c2.2 0 3.5 2 4 4z" fill="none" stroke="#c75c5c" stroke-miterlimit="10" stroke-width="4"/><g fill="#231f20" opacity=".2"><path d="m52 42c0 2.2-1.8 4-4 4h-32c-2.2 0-4-1.8-4-4v-5c0-2.2 1.8-4 4-4h32c2.2 0 4 1.8 4 4z"/><path d="m48 48h-32c-3.3 0-6-2.7-6-6v-5c0-3.3 2.7-6 6-6h32c3.3 0 6 2.7 6 6v5c0 3.3-2.7 6-6 6zm-32-13c-1.1 0-2 .9-2 2v5c0 1.1.9 2 2 2h32c1.1 0 2-.9 2-2v-5c0-1.1-.9-2-2-2z"/></g><g stroke-miterlimit="10"><path d="m52 40c0 2.2-1.8 4-4 4h-32c-2.2 0-4-1.8-4-4v-5c0-2.2 1.8-4 4-4h32c2.2 0 4 1.8 4 4z" fill="#c75c5c" stroke="#c75c5c" stroke-width="4"/><path d="m21 38c0 2.2-1.8 4-4 4-2.2 0-4-1.8-4-4 0-2.2 1.8-4 4-4 2.2 0 4 1.8 4 4z" fill="#f5cf87" stroke="#c75c5c" stroke-width="2"/><path d="m51 38c0 2.2-1.8 4-4 4-2.2 0-4-1.8-4-4 0-2.2 1.8-4 4-4 2.2 0 4 1.8 4 4z" fill="#f5cf87" stroke="#c75c5c" stroke-width="2"/><path d="m10.9 32c-11.4-7.1-8.5 24.4-6.3 26.8 2.7 2.9 9-2.5 16.4.1 4.2 1.5 9.3 2.4 9.3 5.1" fill="none" stroke="#62b62f"/><path d="m10.6 31.5-.2.5c-.1.2-.3.2-.5.1l-.4-.3c-.2-.1-.2-.3-.1-.5l.3-.4c.1-.2.3-.2.5-.1l.4.3c.1 0 .1.2 0 .4z" fill="none" stroke="#68c6df"/></g></svg>