<svg id="레이어_1" data-name="레이어 1" xmlns="http://www.w3.org/2000/svg" viewBox="0 0 530.61 610.52"><polygon points="528.78 609.14 2.87 606.75 128.09 457.1 402.03 457.1 528.78 609.14" style="fill:#5f8980"/><polygon points="402.03 56.27 125.38 56.27 2.33 0.77 528.23 0.77 402.03 56.27" style="fill:#5f8980;stroke:#524f48;stroke-miterlimit:10"/><polygon points="528.78 609.14 402.03 457.1 402.03 56.27 528.78 0.77 528.78 609.14" style="fill:#5f8980;stroke:#231815;stroke-miterlimit:10"/><polygon points="128.09 457.1 2.87 606.75 1.78 0.77 128.09 56.27 128.09 457.1" style="fill:#5f8980;stroke:#231815;stroke-miterlimit:10"/><rect x="128.09" y="56.27" width="273.94" height="400.83" style="fill:#abd9cf;stroke:#231815;stroke-miterlimit:10;stroke-width:0.25px"/><rect x="263.93" y="89.54" width="100.77" height="367.56" style="fill:#b2bebf;stroke:#524f48;stroke-miterlimit:10;stroke-width:0.25px"/><rect x="163.56" y="89.54" width="100.37" height="367.56" style="fill:#b2bebf;stroke:#231815;stroke-miterlimit:10;stroke-width:0.25px"/><rect x="250.48" y="36.42" width="26.91" height="73.55" transform="translate(337.13 -190.73) rotate(90)" style="fill:#e71f22;stroke:#231815;stroke-miterlimit:10;stroke-width:0.25px"/><circle cx="385.18" cy="270.84" r="7.08" style="fill:#32328f;stroke:#231815;stroke-miterlimit:10"/></svg>