<svg id="레이어_1" data-name="레이어 1" xmlns="http://www.w3.org/2000/svg" viewBox="0 0 530.61 610.52"><polygon points="528.78 609.14 2.87 606.75 128.09 457.1 402.03 457.1 528.78 609.14" style="fill:#5f8980"/><polygon points="402.03 56.27 125.38 56.27 2.33 0.77 528.23 0.77 402.03 56.27" style="fill:#5f8980;stroke:#524f48;stroke-miterlimit:10"/><polygon points="528.78 609.14 402.03 457.1 402.03 56.27 528.78 0.77 528.78 609.14" style="fill:#5f8980;stroke:#231815;stroke-miterlimit:10"/><polygon points="128.09 457.1 2.87 606.75 1.78 0.77 128.09 56.27 128.09 457.1" style="fill:#5f8980;stroke:#231815;stroke-miterlimit:10"/><rect x="128.09" y="56.27" width="273.94" height="400.83" style="fill:#abd9cf;stroke:#231815;stroke-miterlimit:10;stroke-width:0.25px"/><rect x="355.27" y="89.54" width="9.43" height="367.56" style="fill:#b2bebf;stroke:#524f48;stroke-miterlimit:10;stroke-width:0.25px"/><rect x="163.56" y="89.54" width="9.49" height="367.56" style="fill:#b2bebf;stroke:#231815;stroke-miterlimit:10;stroke-width:0.25px"/><rect x="250.48" y="36.42" width="26.91" height="73.55" transform="translate(337.13 -190.73) rotate(90)" style="fill:#79cbeb;stroke:#e71f22;stroke-miterlimit:10;stroke-width:0.25px"/><circle cx="385.18" cy="270.84" r="7.08" style="fill:#32328f;stroke:#231815;stroke-miterlimit:10"/><line x1="163.56" y1="89.54" x2="364.7" y2="89.54" style="fill:none;stroke:#625149;stroke-miterlimit:10;stroke-width:0.75px"/><rect x="173.05" y="384.39" width="182.23" height="72.71" style="fill:#e4f0fa;stroke:#1e2c68;stroke-miterlimit:10;stroke-width:0.25px"/><rect x="173.05" y="89.54" width="182.23" height="294.85" style="fill:#8497cd;stroke:#231815;stroke-miterlimit:10;stroke-width:0.25px"/><polygon points="353.42 433.19 174.76 433.19 211.13 387.86 310.02 387.86 353.42 433.19" style="fill:#cce9f2;stroke:#f095ab;stroke-miterlimit:10;stroke-width:0.25px"/><path d="M320,377.16s1.46-27.55,13.62-27.87S320,377.16,320,377.16Z" style="fill:#327237"/><path d="M331.26,325.58a17.33,17.33,0,0,1,8.94.28,17.22,17.22,0,0,1-7.62,4.64c-4.57,1.2-8.57,1.08-8.94-.28S326.69,326.79,331.26,325.58Z" style="fill:#d8a0c7"/><path d="M322.84,373.28s-5-23.71,0-37.16" style="fill:none;stroke:#327237;stroke-miterlimit:10;stroke-width:6px"/><path d="M332.14,315.19a16.78,16.78,0,0,1-2.07,8.6c-2.37,4-5.29,6.75-6.52,6s-.3-4.55,2.07-8.6a17.08,17.08,0,0,1,6.52-6.05" style="fill:#d8a0c7"/><path d="M332.26,331.88a17,17,0,0,1,6.12,6.44,17.29,17.29,0,0,1-8.7-2c-4.1-2.34-6.84-5.22-6.13-6.44S328.16,329.54,332.26,331.88Z" style="fill:#d8a0c7"/><path d="M327.87,337.45a16.69,16.69,0,0,1-.28,8.83,16.91,16.91,0,0,1-4.7-7.52c-1.21-4.52-1.09-8.48.28-8.84S326.65,332.93,327.87,337.45Z" style="fill:#d8a0c7"/><path d="M321.49,338.43a17,17,0,0,1-6.52,6.05,16.73,16.73,0,0,1,2.07-8.59c2.37-4.05,5.29-6.76,6.52-6.06S323.86,334.39,321.49,338.43Z" style="fill:#d8a0c7"/><path d="M315.2,334.12a17.32,17.32,0,0,1-8.94-.28,17.15,17.15,0,0,1,7.61-4.64c4.57-1.2,8.57-1.08,8.94.28S319.77,332.91,315.2,334.12Z" style="fill:#d8a0c7"/><path d="M314.2,327.82a16.94,16.94,0,0,1-6.13-6.44,17.29,17.29,0,0,1,8.7,2c4.1,2.34,6.84,5.22,6.13,6.44S318.29,330.16,314.2,327.82Z" style="fill:#d8a0c7"/><path d="M318.86,313.42a16.91,16.91,0,0,1,4.7,7.52c1.22,4.52,1.09,8.48-.28,8.84s-3.48-3-4.69-7.53a16.74,16.74,0,0,1,.27-8.83" style="fill:#d8a0c7"/><ellipse cx="323.55" cy="329.84" rx="3.2" ry="3.16" style="fill:#efea3c"/><polyline points="333.13 397.64 337.27 366.94 308.21 366.94 311.98 397.64 333.13 397.64" style="fill:#c4ac8e"/></svg>