<?xml version="1.0" encoding="UTF-8" standalone="no"?>
<svg
   viewBox="0 0 500 500"
   version="1.1"
   id="svg60"
   sodipodi:docname="flash_man.svg"
   inkscape:version="1.2.2 (732a01da63, 2022-12-09)"
   xmlns:inkscape="http://www.inkscape.org/namespaces/inkscape"
   xmlns:sodipodi="http://sodipodi.sourceforge.net/DTD/sodipodi-0.dtd"
   xmlns="http://www.w3.org/2000/svg"
   xmlns:svg="http://www.w3.org/2000/svg">
  <defs
     id="defs64" />
  <sodipodi:namedview
     id="namedview62"
     pagecolor="#ffffff"
     bordercolor="#000000"
     borderopacity="0.25"
     inkscape:showpageshadow="2"
     inkscape:pageopacity="0.0"
     inkscape:pagecheckerboard="0"
     inkscape:deskcolor="#d1d1d1"
     showgrid="false"
     inkscape:zoom="1.608"
     inkscape:cx="250"
     inkscape:cy="200.5597"
     inkscape:window-width="1920"
     inkscape:window-height="991"
     inkscape:window-x="-9"
     inkscape:window-y="-9"
     inkscape:window-maximized="1"
     inkscape:current-layer="g46" />
  <g
     transform="matrix(1.2806285,0.24099851,-0.15750143,0.4103161,284.51058,1385.6204)"
     fill="#ffff00"
     id="g38">
    <path
       d="m 74.998,-2190 c -108.85,53.25 -203.8,0.3999 -212.06,-118.03 -8.26,-118.4299 73.289,-257.59 182.14,-310.84 108.86,-53.24 203.8,-0.3999 212.06,118.03 8.26,118.4299 -73.288,257.6 -182.14,310.84 z"
       id="path34" />
    <path
       d="m -304.83,-2688.8 183.24,444.55 304.33,-382.41 -487.8,-197.9 -8.243,129.22 8.476,6.54 z"
       id="path36" />
  </g>
  <g
     transform="matrix(.4173 0 0 .41079 -19.17 327.57)"
     id="g58">
    <g
       transform="matrix(1.570497,0.52499577,-0.55721614,1.4796848,62.583035,77.936922)"
       id="g42">
      <path
         d="m 38.54,-577.42 c -4.2418,0.0173 -8.4219,2.5059 -9.5,5.7501 -6.7834,0.029 -14.646,3.4958 -19.5,6.1562 -3.5901,1.9677 -6.144,5.8139 -9.25,7.2813 -20.476,9.6733 -16.204,22.754 -22.312,34.781 -1.2596,2.48 -0.87875,6.6772 -2.5,8.9375 -3.3981,4.7376 -18.967,16.566 -21.781,21.406 -0.46329,0.79678 1.2586,2.166 2.1562,2.375 5.433,1.2649 12,1.2913 16.75,0.5 56.49,-8.1195 46.81,-7.791 114.03,-11 5.0494,1.13 17.236,2.6826 23.094,3.0938 1.378,0.0967 2.6856,-1.54 1.9688,-2.1875 -7.4953,-6.77 -16.878,-16.23 -21.594,-19.906 -0.46924,-2.009 0.82315,-5.4264 -0.25,-7.1562 -4.0687,-6.5585 -6.4496,-10.826 -8.5312,-22.812 -0.73804,-4.2498 -20.048,-15.283 -31.906,-18.969 -0.47028,-3.6777 -5.4824,-7.8783 -10,-8.2188 -0.28235,-0.0212 -0.59222,-0.0323 -0.875,-0.0312 l -10e-5,-10e-5 z"
         fill-rule="evenodd"
         id="path40" />
    </g>
    <g
       transform="matrix(3.3757 0 0 3.3757 1258.2 319.46)"
       id="g46">
      <path
         d="m -214.76192,-200.95655 c -3.92141,10.89761 -7.53485,22.13153 -10.77637,27.81985 -8.85965,1.93666 -18.13061,-5.83936 -18.10394,-4.91114 -0.0167,17.85469 11.44579,41.50447 18.76386,62.86981 2.089,8.52823 16.7108,51.169734 16.7108,51.169734 l 29.94051,66.3726032 -2.88674,2.4037578 c 4.67594,6.570376 4.03921,8.753698 13.15801,6.996175 9.05165,-1.9680664 12.55945,-7.1404633 17.98729,-2.2936963 5.42701,4.8467673 6.78498,11.7985093 4.29986,17.8703923 -11.83705,2.624194 -40.91385,14.269937 -40.91385,14.269937 h -22.97654 l -2.08901,-27.438322 -5.57016,1.312097 c 0,0 -18.10393,-51.284352 -20.88852,-63.092754 -2.78508,-11.808558 -30.63708,-43.297471 -30.63708,-43.297471 0,0 -14.62194,38.705054 -18.79883,50.513455 -4.17786,11.808558 -18.10393,54.449588 -18.10393,54.449588 l -5.20904,-2.676634 c -1.04569,6.717805 -6.774,4.043212 -0.36143,8.580992 10.78187,4.190954 16.3487,-5.376505 24.8346,-1.096999 8.48654,4.279505 0.92763,20.778138 0.92763,20.778138 h -67.53983 c -2.42014,-13.278288 7.8573,-20.299271 8.00479,-31.8172114 l -3.1307,-0.6559699 c 0,0 20.19197,-37.7221977 23.6731,-52.1541647 3.48115,-14.432438 16.01427,-53.13702 16.71082,-65.601707 0.69626,-12.46421 -0.69641,-51.16974 -3.48162,-54.44959 -2.7851,-3.28016 -19.8437,-13.44879 -19.14713,-20.00881 3.47331,-18.62402 14.10354,-35.27605 15.66597,-54.12144 l 27.15591,-21.64795 -1.39263,-19.02439 10.4441,4.59226 v -17.0571 c 48.98263,-17.43078 54.05519,8.35584 26.45935,32.80164 0,0 4.13755,6.08052 6.83698,13.9129 0.93266,2.70631 8.43972,8.89595 9.70305,11.25936 1.10985,2.07624 -9.86803,0.0469 -9.92552,1.72455 0.0517,10.4324 -1.0798,28.07105 13.4508,30.57529 1.51793,-3.45821 12.05703,-34.30104 13.27417,-31.29752 0.15326,0.37915 0.5321,-5.57056 2.16085,-7.76111 11.11284,-14.02422 23.27482,24.47249 1.77155,40.13224 z"
         id="path44"
         style="stroke-width:1.61751" />
    </g>
    <g
       transform="matrix(0.29438901,0.11357324,-0.12054353,0.27736633,99.879089,601.14283)"
       id="g56">
      <rect
         x="-286.07001"
         y="-3887.6001"
         width="643.71002"
         height="168.89999"
         rx="70.107002"
         ry="70.107002"
         id="rect48" />
      <path
         d="m 237.35,-3862.1 161.73,-73.294 v 264.5 l -161.23,-76.164 -0.4993,-115.04 z"
         id="path50" />
      <rect
         x="356.60001"
         y="-3936.2"
         width="97.444"
         height="266.22"
         rx="48.423"
         ry="108.61"
         id="rect52" />
      <rect
         x="187.8"
         y="-3901.7"
         width="66.473999"
         height="29.292999"
         rx="22.533001"
         ry="7.8867002"
         id="rect54" />
    </g>
  </g>
</svg>
