<?xml version="1.0" encoding="UTF-8" standalone="no"?>
<svg
   viewBox="0 0 500 500"
   version="1.1"
   id="svg2591"
   sodipodi:docname="flashlight.svg"
   inkscape:version="1.2.2 (732a01da63, 2022-12-09)"
   xmlns:inkscape="http://www.inkscape.org/namespaces/inkscape"
   xmlns:sodipodi="http://sodipodi.sourceforge.net/DTD/sodipodi-0.dtd"
   xmlns="http://www.w3.org/2000/svg"
   xmlns:svg="http://www.w3.org/2000/svg">
  <defs
     id="defs2595" />
  <sodipodi:namedview
     id="namedview2593"
     pagecolor="#ffffff"
     bordercolor="#000000"
     borderopacity="0.25"
     inkscape:showpageshadow="2"
     inkscape:pageopacity="0.0"
     inkscape:pagecheckerboard="0"
     inkscape:deskcolor="#d1d1d1"
     showgrid="false"
     inkscape:zoom="1.55"
     inkscape:cx="249.67742"
     inkscape:cy="250"
     inkscape:window-width="1920"
     inkscape:window-height="991"
     inkscape:window-x="-9"
     inkscape:window-y="-9"
     inkscape:window-maximized="1"
     inkscape:current-layer="svg2591" />
  <g
     transform="matrix(0.42405648,-0.17323912,0.17156759,0.41512283,201.97958,512.01481)"
     id="g2589">
    <g
       transform="matrix(0.94244,0.33438,-0.33438,0.94244,63.69,-225.3)"
       id="g2573"
       style="display:none">
      <path
         d="m 38.54,-577.42 c -4.2418,0.0173 -8.4219,2.5059 -9.5,5.7501 -6.7834,0.029 -14.646,3.4958 -19.5,6.1562 -3.5901,1.9677 -6.144,5.8139 -9.25,7.2813 -20.476,9.6733 -16.204,22.754 -22.312,34.781 -1.2596,2.48 -0.87875,6.6772 -2.5,8.9375 -3.3981,4.7376 -18.967,16.566 -21.781,21.406 -0.46329,0.79678 1.2586,2.166 2.1562,2.375 5.433,1.2649 12,1.2913 16.75,0.5 56.49,-8.1195 46.81,-7.791 114.03,-11 5.0494,1.13 17.236,2.6826 23.094,3.0938 1.378,0.0967 2.6856,-1.54 1.9688,-2.1875 -7.4953,-6.77 -16.878,-16.23 -21.594,-19.906 -0.46924,-2.009 0.82315,-5.4264 -0.25,-7.1562 -4.0687,-6.5585 -6.4496,-10.826 -8.5312,-22.812 -0.73804,-4.2498 -20.048,-15.283 -31.906,-18.969 -0.47028,-3.6777 -5.4824,-7.8783 -10,-8.2188 -0.28235,-0.0212 -0.59222,-0.0323 -0.875,-0.0312 l -10e-5,-10e-5 z"
         fill-rule="evenodd"
         id="path2571" />
    </g>
    <g
       transform="matrix(3.3757,0,0,3.3757,1258.2,319.46)"
       id="g2577"
       style="display:none">
      <path
         d="m -270.19,-243.8 c -2.3532,6.9409 -4.5216,14.096 -6.4668,17.719 -5.3166,1.2335 -10.88,-3.7192 -10.864,-3.128 -0.01,11.372 6.8685,26.435 11.26,40.043 1.2536,5.4318 10.028,32.591 10.028,32.591 l 17.967,42.274 -1.7323,1.531 c 2.806,4.1848 2.4239,5.5754 7.896,4.456 5.4318,-1.2535 7.5368,-4.5479 10.794,-1.4609 3.2567,3.087 4.0716,7.5147 2.5803,11.382 -7.1033,1.6714 -24.552,9.0888 -24.552,9.0888 h -13.788 l -1.2536,-17.476 -3.3426,0.8357 c 0,0 -10.864,-32.664 -12.535,-40.185 -1.6713,-7.5211 -18.385,-27.577 -18.385,-27.577 0,0 -8.7745,24.652 -11.281,32.173 -2.5071,7.5211 -10.864,34.68 -10.864,34.68 l -3.1259,-1.7048 c -0.6275,4.2787 -4.065,2.5752 -0.21689,5.4654 6.4701,2.6693 9.8107,-3.4244 14.903,-0.6987 5.0927,2.7257 0.55667,13.234 0.55667,13.234 h -40.53 c -1.4523,-8.4572 4.7151,-12.929 4.8036,-20.265 l -1.8787,-0.4178 c 0,0 12.117,-24.026 14.206,-33.218 2.089,-9.1923 9.61,-33.844 10.028,-41.783 0.41782,-7.9387 -0.41791,-32.591 -2.0893,-34.68 -1.6713,-2.0892 -11.908,-8.5658 -11.49,-12.744 2.0843,-11.862 8.4634,-22.468 9.401,-34.471 l 16.296,-13.788 -0.8357,-12.117 6.2674,2.9249 v -10.864 c 29.394,-11.102 32.438,5.322 15.878,20.892 0,0 2.4829,3.8728 4.1028,8.8614 0.55969,1.7237 5.0646,5.666 5.8227,7.1713 0.66602,1.3224 -5.9217,0.0299 -5.9562,1.0984 0.031,6.6446 -0.64798,17.879 8.0717,19.474 0.91089,-2.2026 7.2353,-21.847 7.9657,-19.934 0.092,0.24149 0.3193,-3.548 1.2967,-4.9432 6.6687,-8.9323 13.967,15.587 1.0631,25.561 z"
         id="path2575" />
    </g>
    <g
       transform="matrix(0.17666,0.072337,-0.072337,0.17666,86.071,107.94)"
       id="g2587"
       style="display:inline">
      <rect
         x="-286.07001"
         y="-3887.6001"
         width="643.71002"
         height="168.89999"
         rx="70.107002"
         ry="70.107002"
         id="rect2579" />
      <path
         d="m 237.35,-3862.1 161.73,-73.294 v 264.5 l -161.23,-76.164 -0.4993,-115.04 z"
         id="path2581" />
      <rect
         x="356.60001"
         y="-3936.2"
         width="97.444"
         height="266.22"
         rx="48.423"
         ry="108.61"
         id="rect2583" />
      <rect
         x="187.8"
         y="-3901.7"
         width="66.473999"
         height="29.292999"
         rx="22.533001"
         ry="7.8867002"
         id="rect2585" />
    </g>
  </g>
</svg>
