<?xml version="1.0" encoding="UTF-8" standalone="no"?>
<svg
   viewBox="0 0 87.950409 318.75958"
   version="1.1"
   id="svg1180"
   sodipodi:docname="open_beer.svg"
   xml:space="preserve"
   inkscape:version="1.2.2 (732a01da63, 2022-12-09)"
   xmlns:inkscape="http://www.inkscape.org/namespaces/inkscape"
   xmlns:sodipodi="http://sodipodi.sourceforge.net/DTD/sodipodi-0.dtd"
   xmlns:xlink="http://www.w3.org/1999/xlink"
   xmlns="http://www.w3.org/2000/svg"
   xmlns:svg="http://www.w3.org/2000/svg"><sodipodi:namedview
     id="namedview1182"
     pagecolor="#ffffff"
     bordercolor="#000000"
     borderopacity="0.25"
     inkscape:showpageshadow="2"
     inkscape:pageopacity="0.0"
     inkscape:pagecheckerboard="0"
     inkscape:deskcolor="#d1d1d1"
     showgrid="false"
     inkscape:zoom="2.2"
     inkscape:cx="23.863636"
     inkscape:cy="110.68182"
     inkscape:window-width="2400"
     inkscape:window-height="1261"
     inkscape:window-x="2391"
     inkscape:window-y="-9"
     inkscape:window-maximized="1"
     inkscape:current-layer="g1178" /><defs
     id="defs1168"><linearGradient
       id="b"
       x1="436.34"
       x2="547.93"
       y1="485.12"
       y2="489.85"
       gradientUnits="userSpaceOnUse"><stop
         stop-color="#008000"
         offset="0"
         id="stop1158" /><stop
         offset="1"
         id="stop1160" /></linearGradient><linearGradient
       id="a"
       x1="170.93"
       x2="154.28"
       y1="121.75"
       y2="82.281"
       gradientUnits="userSpaceOnUse"><stop
         offset="0"
         id="stop1163" /><stop
         stop-color="#c8c600"
         stop-opacity=".83529"
         offset="1"
         id="stop1165" /></linearGradient><linearGradient
       id="a-1"><stop
         stop-color="#fff"
         stop-opacity=".5"
         offset="0"
         id="stop1281" /><stop
         stop-color="#fff"
         stop-opacity=".1"
         offset="1"
         id="stop1283" /></linearGradient><linearGradient
       id="d"
       x1="58.057745"
       x2="95.833463"
       y1="33.520571"
       y2="63.140033"
       xlink:href="#a-1"
       gradientTransform="matrix(0.797801,0,0,1.2534454,-170,-91.818181)"
       gradientUnits="userSpaceOnUse" /><linearGradient
       id="c"
       x1="17.886345"
       x2="29.262083"
       y1="198.98694"
       y2="233.87333"
       xlink:href="#a-1"
       gradientTransform="matrix(1.8981265,0,0,0.52683527,-170,-91.818181)"
       gradientUnits="userSpaceOnUse" /><linearGradient
       id="b-1"
       x1="71.304889"
       x2="89.21481"
       y1="54.200997"
       y2="80.438706"
       xlink:href="#a-1"
       gradientTransform="matrix(1.5150379,0,0,0.66004949,-170,-91.818181)"
       gradientUnits="userSpaceOnUse" /></defs><g
     transform="matrix(0.99375661,0,0,0.86620188,-433.73769,-188.93116)"
     stroke="#000000"
     id="g1178"
     inkscape:label="g1178"><path
       d="m 463.97,282.74 4.2759,-1.6245 5.6641,2.763 5.2716,-2.4118 5.2734,2.8687 5.7629,-2.7876 5.9052,1.3944 4.1206,-2.7342 c 0,0 -1.4972,-8.6593 -4.3239,-9.7213 -3.2823,-1.2332 -16.527,-1.3151 -16.527,-1.3151 0,0 -14.448,-0.70483 -16.308,1.5308 -1.8435,2.2164 -3.1894,10.122 -3.1894,10.122 l 4.0745,1.9158 z m -1.715,-0.10257 c 0,0 -2.0185,8.5755 -1.4081,11.363 0.37229,1.7003 0.9265,3.2664 0.89538,4.4347 -0.69091,25.937 -4.9886,75.915 -5.5002,77.962 -0.5116,2.047 -1.0233,9.7213 -3.0699,13.303 -2.0466,3.5817 -8.8259,11.512 -11.256,16.373 -2.072,4.144 -3.0699,8.698 -3.5815,13.303 -0.5116,4.605 0.51164,145.82 0.51164,145.82 l 2.0466,10.745 c 3.0699,4.0932 10.745,7.163 13.814,7.163 3.069,0 31.722,1.0233 38.885,1.0233 7.163,0 17.396,-0.51165 22.001,-4.0932 4.605,-3.58155 7.6747,-7.6747 6.6514,-12.28 -1.0233,-4.6053 -1.0233,-132 -1.0233,-135.59 0,-3.59 0.96044,-13.478 -1.0233,-17.908 -4.0473,-9.0384 -17.908,-29.164 -17.908,-33.257 0,-4.093 -5.1165,-79.305 -5.1165,-82.375 0,-3.07 1.5349,-5.6281 1.5349,-8.1863 0,-2.5582 -1.0233,-8.698 -1.0233,-8.698"
       fill="url(#b)"
       stroke-width="3.7"
       id="path1170"
       style="fill:url(#b)"
       inkscape:label="path1170" /><path
       transform="matrix(0.51648,-1.2246,1.2246,0.51648,257.34,628.09)"
       d="m 195.56,66.431 c 11.284,19.255 2.2209,42.706 -20.244,52.378 -22.4649,9.672 -49.823,1.9036 -61.107,-17.352 -0.18444,-0.31473 -0.3639,-0.63159 -0.53834,-0.95048 l 41.214,-16.563 z"
       fill="url(#a)"
       stroke-width="2.0182"
       id="path1174"
       style="fill:url(#a)"
       inkscape:label="path1174" /><path
       transform="matrix(0.32488,-0.77031,0.77031,0.32488,324.28,575.09)"
       d="m 195.56,66.431 a 45.519,39.016 0 1 1 -81.889,34.076 l 41.214,-16.563 z"
       fill="#808000"
       stroke-width="2.0182"
       id="path1176"
       inkscape:label="path1176"
       style="fill:#0000ff" /><g
       id="g1337"
       transform="matrix(0.4314605,0,0,1.1578323,170.59855,235.23776)"><path
         d="m 664.21717,67.849233 c 4.54544,1.15423 8.16528,-1.56283 6.60855,-3.01781 1.74524,0.0863 3.42321,-0.32405 3.42321,-1.7874 1.37409,-0.71747 -0.69542,-1.84676 -0.69542,-2.72442 -1.89496,-0.98945 0.0115,-2.15608 0.0115,-3.71034 0,-1.5471 1.71163,-2.4921 1.71163,-4.11109 0,-2.35137 3.92787,-1.17583 1.71164,-4.64737 2.07552,-0.4228 4.33736,-1.47838 1.71165,-2.6812 4.11993,-0.23853 6.13879,-2.34449 1.02697,-4.64737 7.76914,0 -8.06821,-8.69451 5.135,-6.97104 4.23799,-0.55322 3.42319,-2.20597 3.42319,-4.28985 5.47735,3.93233 13.15151,2.61049 14.37771,0 2.57216,4.38167 20.19817,2.57624 20.19817,-2.85986 0.34232,6.72237 13.57549,3.39056 16.08949,3.93232 -3.08102,1.85851 3.02114,9.04218 8.21584,9.11598 -12.03441,4.71279 -9.86621,12.94741 4.79263,14.47807 7.42659,0 17.69064,6.70594 10.26978,-7.86475 2.39632,2.6338 17.5381,8.341073 17.59131,3.900273 5.47735,5.52174 8.14907,-5.543343 3.97534,-6.223933 12.47064,1.89785 10.68103,-7.04962 2.39632,-9.11598 5.47735,-0.9107 3.73199,-7.48969 0.34233,-9.65214 4.99937,2.65421 12.85225,-0.82769 11.98157,-5.89859 2.4088,3.45281 10.53829,0.953958 7.18895,-8.40103 0,-1.5387302 -8.55819,-1.7415902 -10.61214,-0.53623 -0.0294,-5.4237502 -7.81932,-9.65215022 -13.35083,-8.5796902 3.43121,-2.6812 -17.25713,-4.87871 -21.5676,-0.53623 2.57578,-12.1889818 -26.34155,-11.7400518 -27.04343,-6.07735 -3.98627,-3.1218245 -27.49481,-7.3401978 -28.07146,6.25601 0,-4.84056 -31.10595,-8.6706386 -30.467,-1.34209858 -6.65625,-2.42307002 -17.5993,2.05707858 -16.77402,4.91697858 -10.26979,-2.69227 -19.7275,8.2753152 -11.27478,8.9424652 -14.60013,2.25307 -4.96455,12.510735 3.94231,12.328485 -14.31362,1.94055 -13.4441,8.282786 -2.37424,8.57969 -18.5256,2.31104 7.09441,13.61765 20.31895,11.79718 0,2.513 1.35183,4.67475 -0.34233,7.32847 0,1.53913 -1.71163,2.84104 -1.71163,4.4686 0.70962,0.74106 -2.40261,2.71318 1.02698,3.93233 -8.04246,1.75204 -6.29863,4.4458 -3.18536,5.69901 z"
         fill="#ffffff"
         fill-rule="evenodd"
         stroke="#000000"
         stroke-linejoin="round"
         stroke-width="1.72275"
         id="path1309-8"
         style="fill:#fbf3bf;fill-opacity:1"
         sodipodi:nodetypes="ccccssccccccccccccccccccccccccccccccccc" /></g></g></svg>
