<?xml version="1.0" encoding="UTF-8" standalone="no"?>
<svg
   viewBox="0 0 695.06989 695.06989"
   version="1.1"
   id="svg7002"
   sodipodi:docname="photo_frame.svg"
   inkscape:version="1.2.2 (732a01da63, 2022-12-09)"
   xmlns:inkscape="http://www.inkscape.org/namespaces/inkscape"
   xmlns:sodipodi="http://sodipodi.sourceforge.net/DTD/sodipodi-0.dtd"
   xmlns="http://www.w3.org/2000/svg"
   xmlns:svg="http://www.w3.org/2000/svg">
  <sodipodi:namedview
     id="namedview7004"
     pagecolor="#ffffff"
     bordercolor="#000000"
     borderopacity="0.25"
     inkscape:showpageshadow="2"
     inkscape:pageopacity="0.0"
     inkscape:pagecheckerboard="0"
     inkscape:deskcolor="#d1d1d1"
     showgrid="false"
     inkscape:zoom="1.1567182"
     inkscape:cx="347.9672"
     inkscape:cy="347.9672"
     inkscape:window-width="2400"
     inkscape:window-height="1261"
     inkscape:window-x="2391"
     inkscape:window-y="-9"
     inkscape:window-maximized="1"
     inkscape:current-layer="g7000" />
  <defs
     id="defs6964">
    <filter
       id="a"
       x="-0.023999587"
       y="-0.023999587"
       width="1.0479992"
       height="1.0479992">
      <feGaussianBlur
         stdDeviation="2.90275"
         id="feGaussianBlur6961" />
    </filter>
  </defs>
  <g
     transform="matrix(2.2848 0 0 2.2848 -452.44 13.011)"
     fill-opacity=".99608"
     id="g7000">
    <path
       d="m 204.98,1.2723 h 290.28 v 290.28 H 204.98 Z"
       filter="url(#a)"
       id="path6966"
       transform="matrix(1.017413,0,0,0.75124249,-3.448012,74.258814)" />
    <path
       d="M 201.03166,72.209649 H 496.36631 V 290.28032 H 201.03166 Z"
       fill="#a05a2c"
       id="path6968"
       style="stroke-width:0.874256" />
    <path
       d="M 206.23063,76.048875 H 491.15715 V 286.43434 H 206.23063 Z"
       fill="#784421"
       id="path6970"
       style="stroke-width:0.874256" />
    <path
       d="M 218.71429,85.263014 H 478.68368 V 277.22049 H 218.71429 Z"
       fill="#c87137"
       id="path6972"
       style="stroke-width:0.874256" />
    <path
       d="M 229.11225,92.941464 H 468.28571 V 269.54355 H 229.11225 Z"
       fill="#784421"
       id="path6974"
       style="stroke-width:0.874256" />
    <path
       d="m 244.7092,104.45876 h 207.97957 v 153.569 H 244.7092 Z"
       fill="#ffffff"
       id="path6976"
       style="stroke-width:0.874256" />
    <path
       d="M 491.66586,286.84542 V 75.543438 H 205.4981 l 5.03233,3.715721 H 486.63598 V 283.13135 l 5.03223,3.71572 z"
       fill="#2b1100"
       id="path6978"
       style="stroke-width:0.874256" />
    <path
       d="M 205.4981,75.545016 V 286.84699 h 286.16776 l -5.03233,-3.71572 H 210.52799 V 79.259084 l -5.03223,-3.71572 z"
       fill="#d38d5f"
       id="path6980"
       style="stroke-width:0.874256" />
    <g
       transform="matrix(0.92155237,0,0,0.68046043,-1262.2931,-417.43691)"
       id="g6986">
      <path
         d="M 1888.9,1020.4 V 739.13 h -281.27 l 4.9462,4.9461 h 271.38 v 271.38 l 4.9461,4.9461 z"
         fill="#2b1100"
         id="path6982" />
      <path
         d="m 1607.7,739.11 v 281.27 h 281.27 l -4.9462,-4.9461 h -271.38 v -271.38 l -4.9461,-4.9461 z"
         fill="#d38d5f"
         id="path6984" />
    </g>
    <g
       transform="matrix(0.84921431,0,0,0.62704709,-1135.8287,-370.43919)"
       id="g6992">
      <path
         d="M 1888.9,1020.4 V 739.13 h -281.27 l 4.9462,4.9461 h 271.38 v 271.38 l 4.9461,4.9461 z"
         fill="#2b1100"
         id="path6988" />
      <path
         d="m 1607.7,739.11 v 281.27 h 281.27 l -4.9462,-4.9461 h -271.38 v -271.38 l -4.9461,-4.9461 z"
         fill="#d38d5f"
         id="path6990" />
    </g>
    <g
       transform="matrix(0.74069703,0,0,0.54691956,-946.11174,-299.9501)"
       id="g6998">
      <path
         d="M 1888.9,1020.4 V 739.13 h -281.27 l 4.9462,4.9461 h 271.38 v 271.38 l 4.9461,4.9461 z"
         fill="#2b1100"
         id="path6994" />
      <path
         d="m 1607.7,739.11 v 281.27 h 281.27 l -4.9462,-4.9461 h -271.38 v -271.38 l -4.9461,-4.9461 z"
         fill="#d38d5f"
         id="path6996" />
    </g>
  </g>
</svg>
