<?xml version="1.0" standalone="no"?>
<!DOCTYPE svg PUBLIC "-//W3C//DTD SVG 20010904//EN"
 "http://www.w3.org/TR/2001/REC-SVG-20010904/DTD/svg10.dtd">
<svg version="1.0" xmlns="http://www.w3.org/2000/svg"
 width="512.000000pt" height="512.000000pt" viewBox="0 0 512.000000 512.000000"
 preserveAspectRatio="xMidYMid meet">

<g transform="translate(0.000000,512.000000) scale(0.100000,-0.100000)"
fill="#000000" stroke="none">
<path d="M2896 4787 c-95 -95 -133 -170 -148 -294 -17 -133 5 -214 126 -458
52 -104 99 -208 105 -230 5 -22 16 -62 23 -90 8 -31 13 -108 13 -202 0 -84 3
-153 6 -153 15 0 71 77 99 136 47 98 63 183 57 304 -7 131 -45 244 -133 400
-75 132 -112 225 -121 301 -6 64 15 173 53 276 13 35 24 68 24 73 0 26 -38 3
-104 -63z"/>
<path d="M3556 4687 c-95 -95 -132 -169 -148 -293 -10 -86 -9 -96 16 -183 14
-51 52 -143 83 -205 110 -217 125 -250 150 -345 24 -85 26 -114 26 -248 -1
-84 3 -153 7 -153 13 0 65 70 92 125 52 105 63 152 62 280 0 103 -4 132 -28
204 -30 92 -75 186 -138 289 -47 77 -83 167 -93 233 -9 58 17 202 51 281 47
113 22 117 -80 15z"/>
<path d="M2473 4271 c-60 -47 -114 -118 -150 -197 -21 -47 -27 -77 -31 -160
-6 -129 2 -153 129 -409 128 -257 143 -313 143 -527 1 -87 4 -158 7 -158 13 0
70 72 93 118 65 129 85 299 50 441 -16 67 -85 216 -149 326 -63 107 -95 205
-95 287 0 73 23 180 54 250 18 42 21 68 7 68 -5 0 -31 -18 -58 -39z"/>
<path d="M50 2861 c-5 -11 -10 -30 -10 -43 0 -27 44 -120 64 -137 7 -6 100
-27 207 -46 286 -53 987 -188 1274 -246 413 -83 480 -105 610 -201 53 -39 93
-75 227 -203 l27 -26 433 -6 c442 -6 881 7 918 27 32 17 36 58 10 107 -36 69
-120 138 -234 193 -196 95 -400 136 -641 127 -238 -9 -394 -58 -500 -158 -48
-45 -58 -51 -85 -45 -37 7 -195 85 -305 151 -71 42 -118 58 -410 142 -603 171
-1203 327 -1414 367 -114 22 -158 21 -171 -3z"/>
<path d="M2711 2760 c-325 -15 -650 -55 -923 -114 -145 -31 -170 -41 -166 -64
2 -11 29 -26 83 -45 l79 -28 126 20 c365 58 630 75 1155 75 472 0 658 -11
1000 -55 501 -65 834 -180 860 -299 38 -175 -528 -330 -1389 -381 -229 -13
-938 -7 -1141 10 -731 63 -1205 202 -1205 353 0 17 8 40 17 50 25 28 22 86 -6
109 -54 44 -130 30 -151 -27 -6 -14 -10 -86 -10 -159 0 -515 197 -984 569
-1356 135 -135 265 -235 422 -324 799 -456 1806 -332 2462 304 361 349 568
803 584 1278 6 150 5 153 -21 207 -31 64 -69 99 -165 156 -253 147 -700 245
-1281 279 -247 15 -691 20 -899 11z"/>
<path d="M1440 2327 c-34 -12 -35 -14 -34 -60 0 -33 6 -54 20 -67 20 -19 159
-60 274 -80 36 -6 112 -24 170 -40 115 -32 341 -74 368 -67 30 6 -56 79 -118
101 -30 10 -92 40 -136 67 -103 62 -186 93 -344 130 -139 32 -150 33 -200 16z"/>
<path d="M4270 2291 c-14 -5 -43 -20 -64 -35 -45 -30 -47 -31 -112 -11 -69 21
-120 19 -156 -6 -25 -19 -38 -20 -96 -15 l-67 7 37 -33 c20 -18 44 -48 52 -65
14 -27 23 -33 49 -34 32 0 32 0 10 -16 -17 -12 -23 -25 -23 -55 0 -78 28 -95
100 -58 33 17 72 22 223 30 106 6 205 17 237 26 115 33 302 117 339 152 l36
35 -35 16 c-25 11 -71 15 -160 16 -106 1 -138 6 -208 28 -85 28 -118 31 -162
18z"/>
</g>
</svg>
