<?xml version="1.0" encoding="utf-8"?>
<!-- Generator: Adobe Illustrator 26.2.1, SVG Export Plug-In . SVG Version: 6.00 Build 0)  -->
<svg version="1.1" id="레이어_1" xmlns="http://www.w3.org/2000/svg" xmlns:xlink="http://www.w3.org/1999/xlink" x="0px"
	 y="0px" viewBox="0 0 512 512" style="enable-background:new 0 0 512 512;" xml:space="preserve">
<g transform="translate(0.000000,512.000000) scale(0.100000,-0.100000)">
	<path d="M50,2861c-5-11-10-30-10-43c0-27,44-120,64-137c7-6,100-27,207-46c286-53,987-188,1274-246c413-83,480-105,610-201
		c53-39,93-75,227-203l27-26l433-6c442-6,881,7,918,27c32,17,36,58,10,107c-36,69-120,138-234,193c-196,95-400,136-641,127
		c-238-9-394-58-500-158c-48-45-58-51-85-45c-37,7-195,85-305,151c-71,42-118,58-410,142c-603,171-1203,327-1414,367
		C107,2886,63,2885,50,2861z"/>
	<path d="M2711,2760c-325-15-650-55-923-114c-145-31-170-41-166-64c2-11,29-26,83-45l79-28l126,20c365,58,630,75,1155,75
		c472,0,658-11,1000-55c501-65,834-180,860-299c38-175-528-330-1389-381c-229-13-938-7-1141,10c-731,63-1205,202-1205,353
		c0,17,8,40,17,50c25,28,22,86-6,109c-54,44-130,30-151-27c-6-14-10-86-10-159c0-515,197-984,569-1356c135-135,265-235,422-324
		c799-456,1806-332,2462,304c361,349,568,803,584,1278c6,150,5,153-21,207c-31,64-69,99-165,156c-253,147-700,245-1281,279
		C3363,2764,2919,2769,2711,2760z"/>
	<path d="M1440,2327c-34-12-35-14-34-60c0-33,6-54,20-67c20-19,159-60,274-80c36-6,112-24,170-40c115-32,341-74,368-67
		c30,6-56,79-118,101c-30,10-92,40-136,67c-103,62-186,93-344,130C1501,2343,1490,2344,1440,2327z"/>
	<path d="M4270,2291c-14-5-43-20-64-35c-45-30-47-31-112-11c-69,21-120,19-156-6c-25-19-38-20-96-15l-67,7l37-33c20-18,44-48,52-65
		c14-27,23-33,49-34c32,0,32,0,10-16c-17-12-23-25-23-55c0-78,28-95,100-58c33,17,72,22,223,30c106,6,205,17,237,26
		c115,33,302,117,339,152l36,35l-35,16c-25,11-71,15-160,16c-106,1-138,6-208,28C4347,2301,4314,2304,4270,2291z"/>
</g>
<g>
	<path d="M261.5,189l-5-2l0.3-0.1c1-0.4,1.6-1.5,1.2-2.4c-0.4-0.9-1.6-1.4-2.6-1l-4.1,1.5l-6.7-2.7l7.2-2.6c1-0.4,1.6-1.5,1.2-2.4
		c-0.4-1-1.6-1.4-2.6-1l-11,4l-6.7-2.7l14.1-5.1c1-0.4,1.6-1.5,1.2-2.4c-0.4-0.9-1.6-1.4-2.6-1l-17.9,6.5l-6.7-2.7l21-7.6
		c0.6-0.2,1-0.6,1.2-1.1c3.1,0.8,5.7,2.5,5.9,4.2c-0.3-2.7,4.9-6.4,9.6-6.9c-4.7,0.5-10.6-2-10.9-4.7c0.2,1.7-2,3.9-4.8,5.4
		c-0.3-0.4-0.8-0.7-1.4-0.8l-22.2-3l6-4l18.9,2.5c1.1,0.1,2.1-0.6,2.3-1.6c0.2-1-0.6-1.9-1.7-2.1l-14.9-2l6-4l11.6,1.5
		c1.1,0.1,2.1-0.6,2.3-1.6c0.2-1-0.6-1.9-1.7-2.1l-7.6-1l6-4l4.3,0.6c1.1,0.1,2.1-0.6,2.3-1.6c0.2-1-0.6-1.9-1.7-2.1l-0.3,0l4.5-3
		c1.2-0.8,1.6-2.3,0.8-3.3c-0.8-1-2.4-1.2-3.7-0.3l-4.5,3l0-0.3c0.2-1-0.6-1.9-1.7-2.1c-1.1-0.1-2.1,0.6-2.3,1.6l-0.7,3.9l-6,4
		l1.3-7c0.2-1-0.6-1.9-1.7-2.1c-1.1-0.1-2.1,0.6-2.3,1.6l-1.9,10.6l-6,4l2.5-13.7c0.2-1-0.6-1.9-1.7-2.1c-1.1-0.1-2.1,0.6-2.3,1.6
		l-3.1,17.3l-6,4l3.7-20.4c0.1-0.5-0.1-1.1-0.4-1.5c2.4-2.1,5.3-3.3,7-2.6c-2.7-1.1-3.5-7-1.5-11c-2,4-7.4,7.4-10,6.4
		c1.8,0.7,2.7,3.5,2.6,6.4c-0.6,0-1.1,0.3-1.5,0.7l-14.3,16.2l-0.7-6.7l12.1-13.8c0.7-0.8,0.6-2-0.3-2.6c-0.9-0.6-2.1-0.5-2.8,0.3
		l-9.6,10.9l-0.7-6.7l7.4-8.4c0.7-0.8,0.6-2-0.3-2.6c-0.9-0.6-2.1-0.5-2.8,0.3l-4.9,5.5l-0.7-6.7l2.8-3.1c0.7-0.8,0.6-2-0.3-2.6
		c-0.9-0.6-2.1-0.5-2.8,0.3l-0.2,0.2l-0.5-5c-0.1-1.4-1.4-2.4-2.8-2.2c-1.4,0.1-2.4,1.4-2.2,2.7l0.5,5l-0.2-0.2
		c-0.9-0.6-2.1-0.5-2.8,0.3c-0.7,0.8-0.6,2,0.3,2.6l3.4,2.5l0.7,6.7l-6-4.4c-0.9-0.6-2.1-0.5-2.8,0.3c-0.7,0.8-0.6,2,0.3,2.6
		l9.1,6.7l0.7,6.7l-11.7-8.6c-0.9-0.6-2.1-0.5-2.8,0.3c-0.7,0.8-0.6,2,0.3,2.6l14.8,10.8l0.7,6.7l-17.4-12.7
		c-0.5-0.3-1.1-0.5-1.6-0.4c-0.7-2.9-0.4-5.8,1.2-6.9c-2.4,1.6-8.4-0.6-11.2-4.1c2.8,3.5,3.2,9.4,0.9,11c1.6-1.1,4.7-0.5,7.4,1.1
		c-0.3,0.5-0.3,1-0.1,1.5l7.9,19.1l-6.7-2.7l-6.7-16.3c-0.4-0.9-1.6-1.4-2.6-1c-1,0.4-1.6,1.5-1.2,2.4l5.3,12.8l-6.7-2.7l-4.1-10
		c-0.4-0.9-1.6-1.4-2.6-1c-1,0.4-1.6,1.5-1.2,2.4l2.7,6.5l-6.7-2.7l-1.5-3.7c-0.4-0.9-1.6-1.4-2.6-1c-1,0.4-1.6,1.5-1.2,2.4l0.1,0.3
		l-5-2c-1.4-0.5-2.9,0-3.5,1.1c-0.6,1.2,0.1,2.5,1.4,3.1l5,2l-0.3,0.1c-1,0.4-1.6,1.5-1.2,2.4c0.4,0.9,1.6,1.4,2.6,1l4.1-1.5
		l6.7,2.7l-7.2,2.6c-1,0.4-1.6,1.5-1.2,2.4c0.4,0.9,1.6,1.4,2.6,1l11-4l6.7,2.7l-14.1,5.1c-1,0.4-1.6,1.5-1.2,2.4
		c0.4,0.9,1.6,1.4,2.6,1l17.9-6.5l6.7,2.7l-21,7.6c-0.6,0.2-1,0.6-1.2,1.1c-3.1-0.8-5.7-2.5-5.9-4.2c0.3,2.7-4.9,6.4-9.6,6.9
		c4.7-0.5,10.6,2,10.9,4.7c-0.2-1.7,2-3.9,4.8-5.4c0.3,0.4,0.8,0.7,1.4,0.8l22.2,2.9l-6,4l-18.9-2.5c-1.1-0.1-2.1,0.6-2.3,1.6
		c-0.2,1,0.6,1.9,1.7,2.1l14.9,2l-6,4l-11.6-1.5c-1.1-0.1-2.1,0.6-2.3,1.6c-0.2,1,0.6,1.9,1.7,2.1l7.6,1l-6,4l-4.3-0.6
		c-1.1-0.1-2.1,0.6-2.3,1.6c-0.2,1,0.6,2,1.7,2.1l0.3,0l-4.5,3c-1.2,0.8-1.6,2.3-0.7,3.3c0.8,1,2.4,1.2,3.7,0.3l4.5-3l0,0.3
		c-0.2,1,0.6,2,1.7,2.1c1.1,0.1,2.1-0.6,2.3-1.6l0.7-3.9l6-4l-1.3,7c-0.2,1,0.6,1.9,1.7,2.1c1.1,0.1,2.1-0.6,2.3-1.6l1.9-10.6l6-4
		l-2.5,13.7c-0.2,1,0.6,1.9,1.7,2.1c1.1,0.1,2.1-0.6,2.3-1.6l3.1-17.3l6-4l-3.7,20.4c-0.1,0.5,0.1,1.1,0.4,1.5
		c-2.4,2.1-5.3,3.3-7,2.6c2.7,1.1,3.5,7,1.5,11c2-4,7.4-7.4,10-6.4c-1.8-0.7-2.7-3.5-2.6-6.4c0.6,0,1.1-0.3,1.5-0.7l14.3-16.2
		l0.7,6.7l-12.1,13.8c-0.7,0.8-0.6,2,0.3,2.6c0.9,0.6,2.1,0.5,2.8-0.3l9.6-10.9l0.7,6.7l-7.4,8.4c-0.7,0.8-0.6,2,0.3,2.6
		c0.9,0.6,2.1,0.5,2.8-0.3l4.9-5.5l0.7,6.7l-2.8,3.1c-0.7,0.8-0.6,2,0.3,2.6c0.9,0.6,2.1,0.5,2.8-0.3l0.2-0.2l0.5,5
		c0.1,1.4,1.4,2.4,2.8,2.2c1.4-0.1,2.4-1.4,2.2-2.7l-0.5-5l0.2,0.2c0.9,0.6,2.1,0.5,2.8-0.3c0.7-0.8,0.6-2-0.3-2.6l-3.4-2.5
		l-0.7-6.7l6,4.4c0.9,0.6,2.1,0.5,2.8-0.3c0.7-0.8,0.6-2-0.3-2.6l-9.1-6.7l-0.7-6.7l11.7,8.6c0.9,0.6,2.1,0.5,2.8-0.3
		c0.7-0.8,0.6-2-0.3-2.6l-14.8-10.8l-0.7-6.7l17.4,12.7c0.5,0.3,1.1,0.5,1.6,0.4c0.7,2.9,0.4,5.8-1.2,6.9c2.4-1.6,8.4,0.6,11.2,4.1
		c-2.8-3.5-3.2-9.4-0.9-11c-1.6,1.1-4.7,0.5-7.4-1.1c0.3-0.5,0.3-1,0.1-1.5l-7.9-19.1l6.7,2.7l6.7,16.3c0.4,0.9,1.6,1.4,2.6,1
		c1-0.4,1.6-1.5,1.2-2.4l-5.3-12.8l6.7,2.7l4.1,10c0.4,0.9,1.6,1.4,2.6,1c1-0.4,1.6-1.5,1.2-2.4l-2.7-6.5l6.7,2.7l1.5,3.7
		c0.4,0.9,1.6,1.4,2.6,1c1-0.4,1.6-1.5,1.2-2.4l-0.1-0.3l5,2c1.4,0.5,2.9,0,3.5-1.1C263.5,190.9,262.9,189.6,261.5,189L261.5,189z
		 M222.9,123.7c-0.1,2.1,0.3,4.1,1.1,5.6c-1.8,0.4-3.7,1.6-5.3,3c0.1-2.1-0.3-4.1-1.1-5.6C219.4,126.3,221.3,125.2,222.9,123.7z
		 M171,129.4c1.9,1.1,4,1.8,5.9,1.8c-0.5,1.6-0.4,3.7,0.1,5.7c-1.9-1.1-4-1.8-5.9-1.8C171.6,133.4,171.5,131.4,171,129.4L171,129.4z
		 M179.9,211.6c0.1-2.1-0.3-4.1-1.1-5.6c1.8-0.4,3.7-1.6,5.3-3c-0.1,2.1,0.3,4.1,1.1,5.6C183.4,209,181.5,210.2,179.9,211.6z
		 M182.3,143.7l15.1,11.1l1,9.2l-9.2-3.7L182.3,143.7L182.3,143.7z M154.9,176c-1.3-1.2-3.3-2.1-5.4-2.7c2-1,3.7-2.3,4.7-3.8
		c1.3,1.2,3.3,2.1,5.4,2.7C157.6,173.2,155.8,174.6,154.9,176z M168.9,171.2l18.3-6.6l9.2,3.7l-8.2,5.6L168.9,171.2L168.9,171.2z
		 M200.3,181.1l-12.4,14.1l3.2-17.7l8.2-5.6L200.3,181.1L200.3,181.1z M231.8,206c-1.9-1.1-4-1.8-5.9-1.8c0.5-1.6,0.4-3.7-0.1-5.7
		c1.9,1.1,4,1.8,5.9,1.8C231.2,201.9,231.3,204,231.8,206z M247.9,159.4c1.3,1.2,3.3,2.1,5.4,2.7c-2,1-3.7,2.3-4.7,3.8
		c-1.3-1.2-3.3-2.1-5.4-2.7C245.2,162.2,247,160.8,247.9,159.4z M203.5,163.5l-1-9.2l12.4-14.1l-3.2,17.7L203.5,163.5L203.5,163.5z
		 M220.4,191.7l-15.1-11.1l-1-9.2l9.2,3.7L220.4,191.7z M215.6,170.8l-9.2-3.7l8.2-5.6l19.3,2.6L215.6,170.8z"/>
</g>
<g>
	<path d="M442.6,221.6l-1.9-2.1l0.2,0c0.6,0.1,1.1-0.3,1.1-0.9c0-0.5-0.4-1-1-1.1l-2.2-0.3l-2.5-2.8l4,0.5c0.6,0.1,1.1-0.3,1.1-0.9
		c0-0.5-0.4-1-1-1.1l-6.1-0.7l-2.5-2.8l7.8,0.9c0.6,0.1,1.1-0.3,1.1-0.9c0-0.5-0.4-1-1-1.1l-9.9-1.1l-2.5-2.8l11.6,1.3
		c0.3,0,0.6-0.1,0.8-0.2c1.3,1.1,2.1,2.5,1.7,3.4c0.5-1.3,3.8-1.9,6.1-1c-2.3-0.9-4.5-3.4-4-4.8c-0.3,0.9-1.9,1.4-3.5,1.4
		c0-0.3-0.2-0.5-0.4-0.7l-9.6-6.6l3.7-0.5l8.2,5.6c0.5,0.3,1.1,0.2,1.5-0.2c0.3-0.4,0.2-1.1-0.3-1.4l-6.5-4.4l3.7-0.5l5,3.5
		c0.5,0.3,1.1,0.2,1.5-0.2c0.3-0.4,0.2-1.1-0.3-1.4l-3.3-2.3l3.7-0.5l1.9,1.3c0.5,0.3,1.1,0.2,1.5-0.2c0.3-0.4,0.2-1.1-0.3-1.4
		l-0.1-0.1l2.8-0.4c0.8-0.1,1.3-0.7,1.1-1.4c-0.1-0.7-0.9-1.1-1.6-1l-2.8,0.4l0.1-0.1c0.3-0.4,0.2-1.1-0.3-1.4
		c-0.5-0.3-1.1-0.2-1.5,0.2l-1.3,1.7l-3.7,0.5l2.2-3c0.3-0.4,0.2-1.1-0.3-1.4c-0.5-0.3-1.1-0.2-1.5,0.2l-3.4,4.6l-3.7,0.5l4.4-5.9
		c0.3-0.4,0.2-1.1-0.3-1.4c-0.5-0.3-1.1-0.2-1.5,0.2l-5.6,7.5l-3.7,0.5l6.6-8.8c0.2-0.2,0.2-0.5,0.1-0.8c1.6-0.4,3.3-0.3,3.9,0.4
		c-1-1.1,0-4.1,1.9-5.6c-1.9,1.4-5.2,1.8-6.2,0.7c0.6,0.7,0.4,2.3-0.3,3.7c-0.3-0.1-0.6-0.1-0.9,0l-10.5,4.3l1.3-3.4l8.9-3.7
		c0.5-0.2,0.7-0.8,0.5-1.3c-0.3-0.5-0.9-0.7-1.4-0.5l-7,2.9l1.3-3.4l5.5-2.3c0.5-0.2,0.7-0.8,0.5-1.3c-0.3-0.5-0.9-0.7-1.4-0.5
		l-3.6,1.5l1.3-3.4l2-0.8c0.5-0.2,0.7-0.8,0.5-1.3c-0.3-0.5-0.9-0.7-1.4-0.5l-0.1,0.1l0.9-2.5c0.3-0.7-0.1-1.4-0.8-1.7
		c-0.7-0.3-1.4,0.1-1.7,0.8l-0.9,2.5l-0.1-0.1c-0.3-0.5-0.9-0.7-1.4-0.5c-0.5,0.2-0.7,0.8-0.5,1.3l1,2l-1.3,3.4l-1.7-3.5
		c-0.3-0.5-0.9-0.7-1.4-0.5c-0.5,0.2-0.7,0.8-0.5,1.3l2.6,5.3l-1.3,3.4l-3.4-6.8c-0.3-0.5-0.9-0.7-1.4-0.5c-0.5,0.2-0.7,0.8-0.5,1.3
		l4.3,8.6l-1.3,3.4l-5.1-10.2c-0.1-0.3-0.4-0.5-0.7-0.6c0.3-1.5,1.2-2.9,2.2-3c-1.5,0.2-3.8-2.3-4.2-4.6c0.5,2.3-0.7,5.2-2.2,5.5
		c1-0.1,2.3,0.9,3.2,2.3c-0.2,0.2-0.4,0.4-0.4,0.7l-0.9,11l-2.5-2.8l0.7-9.3c0-0.5-0.4-1-1-1.1c-0.6-0.1-1.1,0.3-1.1,0.9l-0.6,7.4
		l-2.5-2.8l0.5-5.7c0-0.5-0.4-1-1-1.1c-0.6-0.1-1.1,0.3-1.1,0.9l-0.3,3.8l-2.5-2.8l0.2-2.1c0-0.5-0.4-1-1-1.1
		c-0.6-0.1-1.1,0.3-1.1,0.9l0,0.1l-1.9-2.1c-0.5-0.6-1.4-0.7-1.9-0.3c-0.5,0.4-0.6,1.2-0.1,1.8l1.9,2.1l-0.2,0
		c-0.6-0.1-1.1,0.3-1.1,0.9c0,0.5,0.4,1,1,1.1l2.2,0.3l2.5,2.8l-4-0.5c-0.6-0.1-1.1,0.3-1.1,0.9c0,0.5,0.4,1,1,1.1l6.1,0.7l2.5,2.8
		l-7.8-0.9c-0.6-0.1-1.1,0.3-1.1,0.9c0,0.5,0.4,1,1,1.1l9.9,1.1l2.5,2.8l-11.6-1.3c-0.3,0-0.6,0.1-0.8,0.2c-1.3-1.1-2.1-2.5-1.7-3.4
		c-0.5,1.3-3.8,1.9-6.1,1c2.3,0.9,4.5,3.4,4,4.8c0.3-0.9,1.9-1.4,3.5-1.4c0,0.3,0.2,0.5,0.4,0.7l9.6,6.6l-3.7,0.5l-8.2-5.6
		c-0.5-0.3-1.1-0.2-1.5,0.2c-0.3,0.4-0.2,1.1,0.3,1.4l6.5,4.4l-3.7,0.5l-5-3.5c-0.5-0.3-1.1-0.2-1.5,0.2c-0.3,0.4-0.2,1.1,0.3,1.4
		l3.3,2.3l-3.7,0.5l-1.9-1.3c-0.5-0.3-1.1-0.2-1.5,0.2c-0.3,0.4-0.2,1.1,0.3,1.4l0.1,0.1l-2.8,0.4c-0.8,0.1-1.3,0.7-1.1,1.4
		c0.1,0.7,0.9,1.1,1.6,1l2.8-0.4l-0.1,0.1c-0.3,0.4-0.2,1.1,0.3,1.4c0.5,0.3,1.1,0.2,1.5-0.2l1.3-1.7l3.7-0.5l-2.2,3
		c-0.3,0.4-0.2,1.1,0.3,1.4c0.5,0.3,1.1,0.2,1.5-0.2l3.4-4.6l3.7-0.5l-4.4,5.9c-0.3,0.4-0.2,1.1,0.3,1.4c0.5,0.3,1.1,0.2,1.5-0.2
		l5.6-7.5l3.7-0.5l-6.6,8.8c-0.2,0.2-0.2,0.5-0.1,0.8c-1.6,0.4-3.3,0.3-3.9-0.4c1,1.1,0,4.1-1.9,5.6c1.9-1.4,5.2-1.8,6.2-0.7
		c-0.6-0.7-0.4-2.3,0.3-3.7c0.3,0.1,0.6,0.1,0.9,0l10.5-4.3l-1.3,3.4l-8.9,3.7c-0.5,0.2-0.7,0.8-0.5,1.3c0.3,0.5,0.9,0.7,1.4,0.5
		l7-2.9l-1.3,3.4l-5.5,2.3c-0.5,0.2-0.7,0.8-0.5,1.3c0.3,0.5,0.9,0.7,1.4,0.5l3.6-1.5l-1.3,3.4l-2,0.8c-0.5,0.2-0.7,0.8-0.5,1.3
		c0.3,0.5,0.9,0.7,1.4,0.5l0.1-0.1l-0.9,2.5c-0.3,0.7,0.1,1.4,0.8,1.7c0.7,0.3,1.4-0.1,1.7-0.8l0.9-2.5l0.1,0.1
		c0.3,0.5,0.9,0.7,1.4,0.5c0.5-0.2,0.7-0.8,0.5-1.3l-1-2l1.3-3.4l1.7,3.5c0.3,0.5,0.9,0.7,1.4,0.5c0.5-0.2,0.7-0.8,0.5-1.3l-2.6-5.3
		l1.3-3.4l3.4,6.8c0.3,0.5,0.9,0.7,1.4,0.5c0.5-0.2,0.7-0.8,0.5-1.3l-4.3-8.6l1.3-3.4l5.1,10.2c0.1,0.3,0.4,0.5,0.7,0.6
		c-0.3,1.5-1.2,2.9-2.2,3c1.5-0.2,3.8,2.3,4.2,4.6c-0.5-2.3,0.7-5.2,2.2-5.5c-1,0.1-2.3-0.9-3.2-2.3c0.2-0.2,0.4-0.4,0.4-0.7l0.9-11
		l2.5,2.8l-0.7,9.3c0,0.5,0.4,1,1,1.1c0.6,0.1,1.1-0.3,1.1-0.9l0.6-7.4l2.5,2.8l-0.5,5.7c0,0.5,0.4,1,1,1.1c0.6,0.1,1.1-0.3,1.1-0.9
		l0.3-3.8l2.5,2.8l-0.2,2.1c0,0.5,0.4,1,1,1.1c0.6,0.1,1.1-0.3,1.1-0.9l0-0.1l1.9,2.1c0.5,0.6,1.4,0.7,1.9,0.3
		C443.1,223,443.1,222.2,442.6,221.6L442.6,221.6z M440.2,181.5c-0.5,1-0.8,2-0.8,2.9c-0.9-0.2-2.1-0.1-3.2,0.2c0.5-1,0.8-2,0.8-2.9
		C437.9,181.9,439.1,181.8,440.2,181.5z M414.7,171.9c0.6,1,1.5,1.8,2.3,2.2c-0.6,0.6-1.1,1.7-1.3,2.7c-0.6-1-1.5-1.8-2.3-2.2
		C414,174,414.5,173,414.7,171.9L414.7,171.9z M399.2,213.2c0.5-1,0.8-2,0.8-2.9c0.9,0.2,2.1,0.1,3.2-0.2c-0.5,1-0.8,2-0.8,2.9
		C401.5,212.8,400.4,212.9,399.2,213.2z M416.6,181.4l4.4,8.8l-1.7,4.6l-3.4-3.9L416.6,181.4L416.6,181.4z M396.1,190.3
		c-0.3-0.9-1-1.8-1.9-2.6c1.2,0,2.3-0.2,3.1-0.7c0.3,0.9,1,1.8,1.9,2.6C398,189.6,396.9,189.9,396.1,190.3z M403.8,191.3l10.1,1.1
		l3.4,3.9l-5.1,0.7L403.8,191.3L403.8,191.3z M416,203.5l-9.1,3.8l5.7-7.7l5.2-0.7L416,203.5L416,203.5z M424.8,222.7
		c-0.6-1-1.5-1.8-2.3-2.2c0.6-0.6,1.1-1.7,1.3-2.7c0.6,1,1.5,1.8,2.3,2.2C425.5,220.6,425,221.6,424.8,222.7z M443.4,204.3
		c0.3,0.9,1,1.8,1.9,2.6c-1.2,0-2.3,0.2-3.1,0.7c-0.3-0.9-1-1.8-1.9-2.6C441.4,205,442.6,204.8,443.4,204.3z M421.7,195.8l1.7-4.6
		l9.1-3.8l-5.7,7.7L421.7,195.8L421.7,195.8z M422.9,213.2l-4.4-8.8l1.7-4.6l3.4,3.9L422.9,213.2z M425.6,202.2l-3.4-3.9l5.1-0.7
		l8.4,5.8L425.6,202.2z"/>
</g>
</svg>
