<?xml version="1.0" encoding="UTF-8"?>
<svg version="1.1" viewBox="0 0 787.95 859.14" xmlns="http://www.w3.org/2000/svg">
 <defs>
  <filter id="f" color-interpolation-filters="sRGB">
   <feGaussianBlur stdDeviation="4.8723211"/>
  </filter>
  <filter id="g" x="-.020413" y="-.15229" width="1.0408" height="1.3046" color-interpolation-filters="sRGB">
   <feGaussianBlur stdDeviation="5.0919835"/>
  </filter>
  <linearGradient id="h" x1="424.97" x2="1023.7" y1="337.03" y2="337.03" gradientTransform="matrix(-.79424 .88401 -.88401 -.79424 1058.4 326.05)" gradientUnits="userSpaceOnUse">
   <stop stop-color="#696969" offset="0"/>
   <stop stop-color="#fff" offset=".1106"/>
   <stop stop-color="#696969" offset=".27717"/>
   <stop stop-color="#696969" offset=".71226"/>
   <stop stop-color="#fff" offset=".89624"/>
   <stop stop-color="#fff" offset=".94845"/>
   <stop stop-color="#696969" offset="1"/>
  </linearGradient>
  <radialGradient id="i" cx="352.1" cy="367.99" r="148.51" gradientTransform="matrix(-1.2357 1.3591 -.7743 -.70398 1172.4 133.98)" gradientUnits="userSpaceOnUse">
   <stop stop-color="#fff" offset="0"/>
   <stop stop-color="#fff" offset=".21728"/>
   <stop stop-color="#696969" offset=".856"/>
   <stop offset="1"/>
  </radialGradient>
  <radialGradient id="j" cx="393.97" cy="298.73" r="23.722" gradientTransform="matrix(.96789 -6.7969 11.818 1.6828 -3313.8 2493.5)" gradientUnits="userSpaceOnUse">
   <stop stop-color="#fff" offset="0"/>
   <stop stop-color="#696969" offset="1"/>
  </radialGradient>
 </defs>
 <g transform="translate(76.473 -147.03)">
  <path transform="matrix(-.79424 .88401 -.88401 -.79424 1058.4 326.05)" d="m420.97 292.56c185.71 17.82 371.42-9.9051 557.13-15.658 22.519 14.24 41.354-2.9666 41.556 39.15 0.2021 42.117-19.381 26.119-41.556 41.095-185.71-5.8559-371.42-42.973-557.13-15.658 5.8995-16.31 4.6539-32.62 0-48.93z" color="#000000" filter="url(#g)"/>
  <path transform="matrix(-.79424 .88401 -.88401 -.79424 1058.4 326.05)" d="m429.34 310.73c0 52.526-50.967 95.106-138.51 95.106s-158.51-53.019-158.51-96.743c0-33.104 70.967-93.469 158.51-93.469s138.51 42.58 138.51 95.106z" color="#000000" filter="url(#f)"/>
  <path d="m626.34 385.03c42.333-50.413 65.921-118.45 56.03-184.06-3.2084-19.837-14.882-39.835-34.851-46.522-35.235-14.377-75.038-5.6977-109.33 7.6729-68.369 28.077-124.74 86.593-147.82 157.03-11.19 37.404-6.8716 81.881 20.782 111.23 25.724 28.2 67.153 38.907 103.58 29.108 44.574-10.219 82.052-40.443 111.6-74.464z" color="#000000" fill="url(#j)"/>
  <path d="m17.554 963.77c138.2-163.68 257.97-343.73 414.22-491.57 4.6521-5.9241 12.122-9.216 16.02-15.682 1.6034-6.7988-8.382-6.8695-11.973-10.457-15.445-8.9571-28.485-22.409-35.563-38.99-86.425 132.41-203.66 240.45-318.4 347.81-48.567 45.538-96.965 91.312-143.01 139.42-0.34901 17.69-19.06 30.819-14.632 48.96 4.4206 15.469 18.592 25.372 30.436 35.083 9.7721 7.4546 24.609 10.925 34.653 2.0228 8.8159-6.5125 17.774-13.532 28.26-16.591z" color="#000000" fill="#696969"/>
  <path d="m420.36 434.88c-47.367-42.557-44.472-123.02 26.457-201.96 70.929-78.946 176.24-99.987 215.67-64.561 29.853 26.822 26.791 139.73-44.138 218.67-70.929 78.946-150.62 90.409-197.99 47.851z" color="#000000" fill="url(#i)"/>
  <path d="m444.57 453.48c-163.25 150.02-286.24 336.2-428.65 504.94-30.473 8.5971-30.222 38.913-67.615 5.641-37.392-33.272-7.6971-37.878-3.3235-69.375 152.68-159.52 332.99-294.21 456.34-480.07 9.7327 18.169 25.14 30.022 43.255 38.862z" color="#000000" fill="url(#h)"/>
 </g>
</svg>
